<?xml version="1.0" encoding="UTF-8"?>
<!DOCTYPE svg PUBLIC "-//W3C//DTD SVG 1.1//EN" "http://www.w3.org/Graphics/SVG/1.1/DTD/svg11.dtd">
<svg xmlns="http://www.w3.org/2000/svg" version="1.1" width="512px" height="512px" style="shape-rendering:geometricPrecision; text-rendering:geometricPrecision; image-rendering:optimizeQuality; fill-rule:evenodd; clip-rule:evenodd" xmlns:xlink="http://www.w3.org/1999/xlink">
<g><path style="opacity:0.887" fill="#000000" d="M 91.5,39.5 C 102.86,38.71 106.193,43.5434 101.5,54C 90.9641,57.997 86.4641,54.497 88,43.5C 88.6897,41.6498 89.8564,40.3164 91.5,39.5 Z"/></g>
<g><path style="opacity:0.887" fill="#000000" d="M 411.5,39.5 C 422.86,38.71 426.193,43.5434 421.5,54C 410.964,57.997 406.464,54.497 408,43.5C 408.69,41.6498 409.856,40.3164 411.5,39.5 Z"/></g>
<g><path style="opacity:0.887" fill="#000000" d="M 511.5,43.5 C 511.5,46.1667 511.5,48.8333 511.5,51.5C 508.444,55.2407 504.444,56.4073 499.5,55C 496.484,53.4714 495.151,50.9714 495.5,47.5C 496.264,40.269 500.264,37.769 507.5,40C 509.35,40.6897 510.684,41.8564 511.5,43.5 Z"/></g>
<g><path style="opacity:0.887" fill="#000000" d="M -0.5,55.5 C -0.5,52.8333 -0.5,50.1667 -0.5,47.5C 2.55598,43.7593 6.55598,42.5927 11.5,44C 14.516,45.5286 15.8494,48.0286 15.5,51.5C 14.7363,58.731 10.7363,61.231 3.5,59C 1.64977,58.3103 0.316435,57.1436 -0.5,55.5 Z"/></g>
<g><path style="opacity:1" fill="#737373" d="M 91.5,44.5 C 91.8966,43.475 92.5632,43.3083 93.5,44C 95.3293,45.1133 96.1626,46.6133 96,48.5C 94.6288,46.9586 93.1288,45.6253 91.5,44.5 Z"/></g>
<g><path style="opacity:1" fill="#737373" d="M 411.5,46.5 C 411.897,45.475 412.563,45.3083 413.5,46C 415.329,47.1133 416.163,48.6133 416,50.5C 414.629,48.9586 413.129,47.6253 411.5,46.5 Z"/></g>
<g><path style="opacity:1" fill="#737373" d="M 503.5,48.5 C 503.897,47.475 504.563,47.3083 505.5,48C 507.329,49.1133 508.163,50.6133 508,52.5C 506.629,50.9586 505.129,49.6253 503.5,48.5 Z"/></g>
<g><path style="opacity:1" fill="#737373" d="M 3.5,49.5 C 3.89657,48.475 4.56323,48.3083 5.5,49C 7.32925,50.1133 8.16258,51.6133 8,53.5C 6.62879,51.9586 5.12879,50.6253 3.5,49.5 Z"/></g>
<g><path style="opacity:0.887" fill="#000000" d="M 251.5,59.5 C 262.86,58.71 266.193,63.5434 261.5,74C 250.964,77.997 246.464,74.497 248,63.5C 248.69,61.6498 249.856,60.3164 251.5,59.5 Z"/></g>
<g><path style="opacity:1" fill="#737373" d="M 253.5,64.5 C 253.897,63.475 254.563,63.3083 255.5,64C 257.329,65.1133 258.163,66.6133 258,68.5C 256.629,66.9586 255.129,65.6253 253.5,64.5 Z"/></g>
<g><path style="opacity:0.944" fill="#000000" d="M 47.5,71.5 C 57.1667,69.8333 61.1667,73.8333 59.5,83.5C 70.8598,82.71 74.1931,87.5434 69.5,98C 66.3117,99.3158 62.9783,99.8158 59.5,99.5C 60.29,110.86 55.4566,114.193 45,109.5C 43.6842,106.312 43.1842,102.978 43.5,99.5C 32.1402,100.29 28.8069,95.4566 33.5,85C 36.6883,83.6842 40.0217,83.1842 43.5,83.5C 43.3359,80.8127 43.5026,78.146 44,75.5C 44.6897,73.6498 45.8564,72.3164 47.5,71.5 Z"/></g>
<g><path style="opacity:0.945" fill="#000000" d="M 455.5,71.5 C 465.167,69.8333 469.167,73.8333 467.5,83.5C 478.86,82.71 482.193,87.5434 477.5,98C 474.312,99.3158 470.978,99.8158 467.5,99.5C 468.29,110.86 463.457,114.193 453,109.5C 451.684,106.312 451.184,102.978 451.5,99.5C 440.14,100.29 436.807,95.4566 441.5,85C 444.688,83.6842 448.022,83.1842 451.5,83.5C 451.336,80.8127 451.503,78.146 452,75.5C 452.69,73.6498 453.856,72.3164 455.5,71.5 Z"/></g>
<g><path style="opacity:0.931" fill="#000000" d="M 167.5,87.5 C 182.852,85.5861 196.519,89.4194 208.5,99C 238.419,127.828 249.252,162.661 241,203.5C 231.881,232.976 212.381,244.143 182.5,237C 166.826,229.66 154.66,218.493 146,203.5C 130.558,176.162 127.224,147.496 136,117.5C 141.571,102.091 152.071,92.0907 167.5,87.5 Z"/></g>
<g><path style="opacity:0.931" fill="#000000" d="M 325.5,87.5 C 349.55,85.1061 366.05,95.1061 375,117.5C 384.849,153.591 378.515,186.591 356,216.5C 346.864,227.65 335.364,235.15 321.5,239C 297.431,241.882 280.931,232.048 272,209.5C 262.755,177.296 267.088,146.963 285,118.5C 292.59,107.575 302.09,98.742 313.5,92C 317.571,90.3695 321.571,88.8695 325.5,87.5 Z"/></g>
<g><path style="opacity:1" fill="#eeeeee" d="M 460.5,87.5 C 465.862,89.0586 466.529,91.5586 462.5,95C 457.872,97.2294 455.206,95.7294 454.5,90.5C 456.97,90.3465 458.97,89.3465 460.5,87.5 Z"/></g>
<g><path style="opacity:1" fill="#e9e9e9" d="M 49.5,87.5 C 53.3668,87.858 56.3668,89.6913 58.5,93C 56.0506,93.7246 53.7173,94.7246 51.5,96C 47.4737,97.3366 44.4737,96.1699 42.5,92.5C 45.7315,91.9143 48.0649,90.2477 49.5,87.5 Z"/></g>
<g><path style="opacity:1" fill="#fefffe" d="M 170.5,104.5 C 185.059,103.695 196.892,109.028 206,120.5C 224.36,143.961 230.36,170.294 224,199.5C 217.052,221.394 203.218,227.561 182.5,218C 166.488,205.958 155.988,190.124 151,170.5C 147.694,156.158 147.694,141.825 151,127.5C 153.823,116.525 160.323,108.859 170.5,104.5 Z"/></g>
<g><path style="opacity:1" fill="#fefffe" d="M 327.5,104.5 C 339.422,102.411 348.588,106.411 355,116.5C 358.726,122.677 361.059,129.344 362,136.5C 365.174,168.336 355.008,194.836 331.5,216C 311.774,228.202 297.274,223.702 288,202.5C 279.526,168.599 287.36,139.099 311.5,114C 316.434,110.038 321.767,106.871 327.5,104.5 Z"/></g>
<g><path style="opacity:0.892" fill="#000000" d="M -0.5,139.5 C -0.5,136.833 -0.5,134.167 -0.5,131.5C 2.55598,127.759 6.55598,126.593 11.5,128C 14.516,129.529 15.8494,132.029 15.5,135.5C 14.7363,142.731 10.7363,145.231 3.5,143C 1.64977,142.31 0.316435,141.144 -0.5,139.5 Z"/></g>
<g><path style="opacity:0.892" fill="#000000" d="M 511.5,131.5 C 511.5,134.167 511.5,136.833 511.5,139.5C 508.444,143.241 504.444,144.407 499.5,143C 496.484,141.471 495.151,138.971 495.5,135.5C 496.264,128.269 500.264,125.769 507.5,128C 509.35,128.69 510.684,129.856 511.5,131.5 Z"/></g>
<g><path style="opacity:0.929" fill="#000000" d="M 75.5,182.5 C 101.282,185.125 121.448,197.125 136,218.5C 152.831,241.661 158.831,267.328 154,295.5C 146.186,320.294 129.352,330.794 103.5,327C 80.7648,320.262 63.2648,306.762 51,286.5C 41.0761,270.06 35.5761,252.226 34.5,233C 34.2985,216.251 40.2985,202.251 52.5,191C 59.5778,186.255 67.2444,183.422 75.5,182.5 Z"/></g>
<g><path style="opacity:0.929" fill="#000000" d="M 431.5,186.5 C 450.771,186.952 464.271,195.952 472,213.5C 477.975,233.446 476.975,253.113 469,272.5C 460.946,293.121 447.78,309.621 429.5,322C 414.558,331.749 398.558,334.083 381.5,329C 368.617,323.115 360.451,313.281 357,299.5C 351.93,263.377 362.43,232.544 388.5,207C 394.614,201.555 401.28,196.888 408.5,193C 415.992,189.714 423.659,187.548 431.5,186.5 Z"/></g>
<g><path style="opacity:1" fill="#fefffe" d="M 76.5,199.5 C 87.757,200.628 97.757,204.795 106.5,212C 129.546,231.926 140.046,257.093 138,287.5C 133.62,306.779 121.787,313.946 102.5,309C 75.0345,295.616 58.5345,273.783 53,243.5C 49.9946,229.022 53.1613,216.189 62.5,205C 66.8445,202.057 71.5112,200.224 76.5,199.5 Z"/></g>
<g><path style="opacity:1" fill="#fefffe" d="M 433.5,203.5 C 446.043,204.537 453.876,211.204 457,223.5C 461.032,255.397 450.866,281.897 426.5,303C 418.271,309.966 408.771,313.799 398,314.5C 383.351,313.855 375.017,306.189 373,291.5C 370.954,261.093 381.454,235.926 404.5,216C 413.073,209.041 422.74,204.874 433.5,203.5 Z"/></g>
<g><path style="opacity:0.932" fill="#000000" d="M 243.5,247.5 C 265.647,245.162 285.313,250.995 302.5,265C 310.687,271.554 317.853,279.054 324,287.5C 330.333,297.5 336.667,307.5 343,317.5C 355.952,332.126 366.952,348.126 376,365.5C 384.389,387.386 385.723,409.72 380,432.5C 372.323,455.159 356.49,467.992 332.5,471C 322.167,471.667 311.833,471.667 301.5,471C 286.211,468.177 270.878,465.677 255.5,463.5C 240.122,465.677 224.789,468.177 209.5,471C 149.517,477.35 122.35,450.517 128,390.5C 129.947,377.326 134.28,364.993 141,353.5C 160.245,327.343 179.245,301.01 198,274.5C 210.442,260.704 225.609,251.704 243.5,247.5 Z"/></g>
<g><path style="opacity:1" fill="#fefffe" d="M 254.5,263.5 C 274.972,266.155 291.806,275.489 305,291.5C 313.496,303.156 321.496,315.156 329,327.5C 340.472,340.443 350.472,354.443 359,369.5C 367.369,389.002 368.702,409.002 363,429.5C 356.693,444.12 345.526,452.287 329.5,454C 309.804,455.568 290.471,453.568 271.5,448C 260.833,446 250.167,446 239.5,448C 220.529,453.568 201.196,455.568 181.5,454C 159.542,451.042 147.376,438.542 145,416.5C 142.369,396.363 146.369,377.696 157,360.5C 173.499,339.666 188.833,317.999 203,295.5C 211.73,283.764 222.563,274.597 235.5,268C 241.785,265.677 248.118,264.177 254.5,263.5 Z"/></g>
<g><path style="opacity:0.934" fill="#000000" d="M 70.5,354.5 C 93.3028,358.767 100.47,371.767 92,393.5C 83.0429,403.804 72.2095,406.304 59.5,401C 46.8513,391.663 44.018,379.83 51,365.5C 56.0683,359.055 62.5683,355.388 70.5,354.5 Z"/></g>
<g><path style="opacity:0.934" fill="#000000" d="M 434.5,354.5 C 457.303,358.767 464.47,371.767 456,393.5C 447.043,403.804 436.21,406.304 423.5,401C 410.851,391.663 408.018,379.83 415,365.5C 420.068,359.055 426.568,355.388 434.5,354.5 Z"/></g>
<g><path style="opacity:0.922" fill="#000000" d="M 199.5,358.5 C 207.444,360.774 209.611,365.774 206,373.5C 190.5,387.282 188.5,402.616 200,419.5C 201.5,428.667 197.667,432.5 188.5,431C 182.203,425.592 178.036,418.759 176,410.5C 173.502,391.007 179.335,374.507 193.5,361C 195.611,360.155 197.611,359.322 199.5,358.5 Z"/></g>
<g><path style="opacity:1" fill="#fefffe" d="M 70.5,371.5 C 76.9581,372.407 79.4581,376.073 78,382.5C 75.8387,386.124 72.672,387.291 68.5,386C 64.8759,383.839 63.7093,380.672 65,376.5C 66.1065,373.887 67.9399,372.22 70.5,371.5 Z"/></g>
<g><path style="opacity:1" fill="#fefffe" d="M 434.5,371.5 C 440.958,372.407 443.458,376.073 442,382.5C 439.839,386.124 436.672,387.291 432.5,386C 428.876,383.839 427.709,380.672 429,376.5C 430.107,373.887 431.94,372.22 434.5,371.5 Z"/></g>
</svg>
